# xmcd
#
# Track frame offsets:
#	150
#	16836
#	34569
#	45731
#	69376
#	83915
#	102337
#	111542
#	131535
#	148899
#	159883
#	173026
#	184204
#	196264
#	207229
#	219415
#	232588
#	251617
#	267995
#	279845
#
# Disc length: 3930 seconds
#
# Revision: 1
# Processed by: cddbd v1.5.2PL0 Copyright (c) Steve Scherf et al.
# Submitted via: audiograbber 1.83.01
#
DISCID=130f5814
DTITLE=Teddy and Rubi Nelson - Langs Norskekysten Disc 2
DYEAR=2014
DGENRE=Country
TTITLE0=Mia Og Mai
TTITLE1=Langs Norskekysten
TTITLE2=Lutefisk Med Stekt Flesk
TTITLE3=Søndag Morgen
TTITLE4=Fest I Karasjok
TTITLE5=Tina Louise
TTITLE6=I Lusekoft Og Sixpence
TTITLE7=En Gang Vil Jeg Bli Stjerne
TTITLE8=Det Er Sommeren Jeg Liker Best
TTITLE9=Han Tenkte På Meg (Da Han Skapte Deg)
TTITLE10=Langs En Landevei
TTITLE11=Før Meg Tilbake
TTITLE12=En Fengselfugl Har Ingen Venn
TTITLE13=Deng Meg, Heng Meg
TTITLE14=Neonlys Og Kvinner
TTITLE15=Stjerne I Ett Countryband
TTITLE16=Han Viste Et Sted
TTITLE17=I Dag Og For Alltid, Min Venn
TTITLE18=Flyskrekk
TTITLE19=Send En Engel
EXTD=
EXTT0=
EXTT1=
EXTT2=
EXTT3=
EXTT4=
EXTT5=
EXTT6=
EXTT7=
EXTT8=
EXTT9=
EXTT10=
EXTT11=
EXTT12=
EXTT13=
EXTT14=
EXTT15=
EXTT16=
EXTT17=
EXTT18=
EXTT19=
PLAYORDER=
